<mxfile host="app.diagrams.net" modified="2021-06-03T17:26:30.418Z" agent="5.0 (Windows NT 10.0; Win64; x64) AppleWebKit/537.36 (KHTML, like Gecko) Chrome/90.0.4430.212 Safari/537.36" etag="X9kG-frl8NjZRUOsKhxB" version="14.7.4" type="github">
  <diagram id="C5RBs43oDa-KdzZeNtuy" name="Page-1">
    <mxGraphModel dx="1065" dy="488" grid="1" gridSize="10" guides="1" tooltips="1" connect="1" arrows="1" fold="1" page="1" pageScale="1" pageWidth="827" pageHeight="1169" math="0" shadow="0">
      <root>
        <mxCell id="WIyWlLk6GJQsqaUBKTNV-0" />
        <mxCell id="WIyWlLk6GJQsqaUBKTNV-1" parent="WIyWlLk6GJQsqaUBKTNV-0" />
        <mxCell id="Q39aa7EpXIlcjL8wKzvE-2" style="edgeStyle=orthogonalEdgeStyle;rounded=0;orthogonalLoop=1;jettySize=auto;html=1;entryX=0.5;entryY=0;entryDx=0;entryDy=0;" edge="1" parent="WIyWlLk6GJQsqaUBKTNV-1" source="Q39aa7EpXIlcjL8wKzvE-0" target="Q39aa7EpXIlcjL8wKzvE-1">
          <mxGeometry relative="1" as="geometry" />
        </mxCell>
        <mxCell id="Q39aa7EpXIlcjL8wKzvE-0" value="&lt;p class=&quot;MsoNormal&quot; align=&quot;center&quot;&gt;&lt;font style=&quot;font-size: 18px&quot;&gt;Proposed Horn Antenna&lt;/font&gt;&lt;span style=&quot;font-size: 16pt&quot;&gt;&lt;/span&gt;&lt;/p&gt;" style="rounded=1;whiteSpace=wrap;html=1;" vertex="1" parent="WIyWlLk6GJQsqaUBKTNV-1">
          <mxGeometry x="320" y="40" width="200" height="60" as="geometry" />
        </mxCell>
        <mxCell id="Q39aa7EpXIlcjL8wKzvE-4" value="" style="edgeStyle=orthogonalEdgeStyle;rounded=0;orthogonalLoop=1;jettySize=auto;html=1;" edge="1" parent="WIyWlLk6GJQsqaUBKTNV-1" source="Q39aa7EpXIlcjL8wKzvE-1" target="Q39aa7EpXIlcjL8wKzvE-3">
          <mxGeometry relative="1" as="geometry" />
        </mxCell>
        <mxCell id="Q39aa7EpXIlcjL8wKzvE-1" value="&lt;p class=&quot;MsoNormal&quot; align=&quot;center&quot;&gt;&lt;font style=&quot;font-size: 18px&quot;&gt;Calculation of Dimensions for proposed Horn Antenna&lt;/font&gt;&lt;/p&gt;" style="rounded=1;whiteSpace=wrap;html=1;" vertex="1" parent="WIyWlLk6GJQsqaUBKTNV-1">
          <mxGeometry x="200" y="160" width="440" height="60" as="geometry" />
        </mxCell>
        <mxCell id="Q39aa7EpXIlcjL8wKzvE-18" value="" style="edgeStyle=orthogonalEdgeStyle;rounded=0;orthogonalLoop=1;jettySize=auto;html=1;" edge="1" parent="WIyWlLk6GJQsqaUBKTNV-1" source="Q39aa7EpXIlcjL8wKzvE-3" target="Q39aa7EpXIlcjL8wKzvE-17">
          <mxGeometry relative="1" as="geometry" />
        </mxCell>
        <mxCell id="Q39aa7EpXIlcjL8wKzvE-3" value="&lt;p class=&quot;MsoNormal&quot; align=&quot;center&quot;&gt;&lt;font style=&quot;font-size: 18px&quot;&gt;Simulation Setup for proposed Design of Horn Antenna&lt;/font&gt;&lt;/p&gt;" style="rounded=1;whiteSpace=wrap;html=1;" vertex="1" parent="WIyWlLk6GJQsqaUBKTNV-1">
          <mxGeometry x="290" y="280" width="260" height="60" as="geometry" />
        </mxCell>
        <mxCell id="Q39aa7EpXIlcjL8wKzvE-8" value="" style="edgeStyle=orthogonalEdgeStyle;rounded=0;orthogonalLoop=1;jettySize=auto;html=1;" edge="1" parent="WIyWlLk6GJQsqaUBKTNV-1" target="Q39aa7EpXIlcjL8wKzvE-7">
          <mxGeometry relative="1" as="geometry">
            <mxPoint x="420" y="480" as="sourcePoint" />
          </mxGeometry>
        </mxCell>
        <mxCell id="Q39aa7EpXIlcjL8wKzvE-10" value="" style="edgeStyle=orthogonalEdgeStyle;rounded=0;orthogonalLoop=1;jettySize=auto;html=1;" edge="1" parent="WIyWlLk6GJQsqaUBKTNV-1" source="Q39aa7EpXIlcjL8wKzvE-7" target="Q39aa7EpXIlcjL8wKzvE-9">
          <mxGeometry relative="1" as="geometry" />
        </mxCell>
        <mxCell id="Q39aa7EpXIlcjL8wKzvE-7" value="&lt;font style=&quot;font-size: 18px&quot;&gt;Fabrication&lt;/font&gt;" style="rounded=1;whiteSpace=wrap;html=1;" vertex="1" parent="WIyWlLk6GJQsqaUBKTNV-1">
          <mxGeometry x="360" y="620" width="120" height="60" as="geometry" />
        </mxCell>
        <mxCell id="Q39aa7EpXIlcjL8wKzvE-12" value="" style="edgeStyle=orthogonalEdgeStyle;rounded=0;orthogonalLoop=1;jettySize=auto;html=1;" edge="1" parent="WIyWlLk6GJQsqaUBKTNV-1" source="Q39aa7EpXIlcjL8wKzvE-9" target="Q39aa7EpXIlcjL8wKzvE-11">
          <mxGeometry relative="1" as="geometry" />
        </mxCell>
        <mxCell id="Q39aa7EpXIlcjL8wKzvE-9" value="&lt;font size=&quot;3&quot;&gt;Return Loss Mesaurement&lt;/font&gt;" style="rounded=1;whiteSpace=wrap;html=1;" vertex="1" parent="WIyWlLk6GJQsqaUBKTNV-1">
          <mxGeometry x="360" y="760" width="120" height="60" as="geometry" />
        </mxCell>
        <mxCell id="Q39aa7EpXIlcjL8wKzvE-14" value="" style="edgeStyle=orthogonalEdgeStyle;rounded=0;orthogonalLoop=1;jettySize=auto;html=1;" edge="1" parent="WIyWlLk6GJQsqaUBKTNV-1" source="Q39aa7EpXIlcjL8wKzvE-11" target="Q39aa7EpXIlcjL8wKzvE-13">
          <mxGeometry relative="1" as="geometry" />
        </mxCell>
        <mxCell id="Q39aa7EpXIlcjL8wKzvE-25" style="edgeStyle=orthogonalEdgeStyle;rounded=0;orthogonalLoop=1;jettySize=auto;html=1;entryX=0.5;entryY=1;entryDx=0;entryDy=0;" edge="1" parent="WIyWlLk6GJQsqaUBKTNV-1" source="Q39aa7EpXIlcjL8wKzvE-11" target="Q39aa7EpXIlcjL8wKzvE-26">
          <mxGeometry relative="1" as="geometry">
            <mxPoint x="200" y="690" as="targetPoint" />
          </mxGeometry>
        </mxCell>
        <mxCell id="Q39aa7EpXIlcjL8wKzvE-11" value="&lt;font size=&quot;3&quot;&gt;Achieve desired result?&lt;/font&gt;" style="rhombus;whiteSpace=wrap;html=1;rounded=1;" vertex="1" parent="WIyWlLk6GJQsqaUBKTNV-1">
          <mxGeometry x="326.25" y="860" width="187.5" height="160" as="geometry" />
        </mxCell>
        <mxCell id="Q39aa7EpXIlcjL8wKzvE-16" value="" style="edgeStyle=orthogonalEdgeStyle;rounded=0;orthogonalLoop=1;jettySize=auto;html=1;" edge="1" parent="WIyWlLk6GJQsqaUBKTNV-1" source="Q39aa7EpXIlcjL8wKzvE-13" target="Q39aa7EpXIlcjL8wKzvE-15">
          <mxGeometry relative="1" as="geometry" />
        </mxCell>
        <mxCell id="Q39aa7EpXIlcjL8wKzvE-13" value="&lt;font size=&quot;3&quot;&gt;Analysis of result by radiation pattern&amp;nbsp;&lt;/font&gt;" style="whiteSpace=wrap;html=1;rounded=1;" vertex="1" parent="WIyWlLk6GJQsqaUBKTNV-1">
          <mxGeometry x="255" y="1080" width="330" height="60" as="geometry" />
        </mxCell>
        <mxCell id="Q39aa7EpXIlcjL8wKzvE-15" value="&lt;font style=&quot;font-size: 18px&quot;&gt;Proposed antenna Designed&lt;/font&gt;" style="whiteSpace=wrap;html=1;rounded=1;" vertex="1" parent="WIyWlLk6GJQsqaUBKTNV-1">
          <mxGeometry x="290" y="1200" width="260" height="60" as="geometry" />
        </mxCell>
        <mxCell id="Q39aa7EpXIlcjL8wKzvE-20" value="" style="edgeStyle=orthogonalEdgeStyle;rounded=0;orthogonalLoop=1;jettySize=auto;html=1;" edge="1" parent="WIyWlLk6GJQsqaUBKTNV-1" source="Q39aa7EpXIlcjL8wKzvE-17" target="Q39aa7EpXIlcjL8wKzvE-19">
          <mxGeometry relative="1" as="geometry" />
        </mxCell>
        <mxCell id="Q39aa7EpXIlcjL8wKzvE-17" value="&lt;p class=&quot;MsoNormal&quot; align=&quot;center&quot;&gt;&lt;span style=&quot;font-size: medium&quot;&gt;Achieve desired result?&lt;/span&gt;&lt;br&gt;&lt;/p&gt;" style="rhombus;whiteSpace=wrap;html=1;rounded=1;" vertex="1" parent="WIyWlLk6GJQsqaUBKTNV-1">
          <mxGeometry x="326.25" y="395" width="185" height="150" as="geometry" />
        </mxCell>
        <mxCell id="Q39aa7EpXIlcjL8wKzvE-24" style="edgeStyle=orthogonalEdgeStyle;rounded=0;orthogonalLoop=1;jettySize=auto;html=1;entryX=1;entryY=0.5;entryDx=0;entryDy=0;" edge="1" parent="WIyWlLk6GJQsqaUBKTNV-1" source="Q39aa7EpXIlcjL8wKzvE-19" target="Q39aa7EpXIlcjL8wKzvE-3">
          <mxGeometry relative="1" as="geometry">
            <mxPoint x="620" y="310" as="targetPoint" />
            <Array as="points">
              <mxPoint x="640" y="310" />
            </Array>
          </mxGeometry>
        </mxCell>
        <mxCell id="Q39aa7EpXIlcjL8wKzvE-19" value="&lt;font size=&quot;3&quot;&gt;Modification&lt;/font&gt;" style="whiteSpace=wrap;html=1;rounded=1;" vertex="1" parent="WIyWlLk6GJQsqaUBKTNV-1">
          <mxGeometry x="590" y="440" width="120" height="60" as="geometry" />
        </mxCell>
        <mxCell id="Q39aa7EpXIlcjL8wKzvE-27" style="edgeStyle=orthogonalEdgeStyle;rounded=0;orthogonalLoop=1;jettySize=auto;html=1;entryX=0;entryY=0.5;entryDx=0;entryDy=0;" edge="1" parent="WIyWlLk6GJQsqaUBKTNV-1" source="Q39aa7EpXIlcjL8wKzvE-26" target="Q39aa7EpXIlcjL8wKzvE-3">
          <mxGeometry relative="1" as="geometry">
            <mxPoint x="200" y="310" as="targetPoint" />
            <Array as="points">
              <mxPoint x="200" y="310" />
            </Array>
          </mxGeometry>
        </mxCell>
        <mxCell id="Q39aa7EpXIlcjL8wKzvE-26" value="&lt;font size=&quot;3&quot;&gt;Modification&lt;/font&gt;" style="rounded=1;whiteSpace=wrap;html=1;" vertex="1" parent="WIyWlLk6GJQsqaUBKTNV-1">
          <mxGeometry x="140" y="600" width="120" height="60" as="geometry" />
        </mxCell>
      </root>
    </mxGraphModel>
  </diagram>
</mxfile>
